<?xml version="1.0" standalone="no"?>
<!DOCTYPE svg PUBLIC "-//W3C//DTD SVG 20010904//EN"
 "http://www.w3.org/TR/2001/REC-SVG-20010904/DTD/svg10.dtd">
<svg version="1.0" xmlns="http://www.w3.org/2000/svg"
 width="334.000000pt" height="334.000000pt" viewBox="0 0 334.000000 334.000000"
 preserveAspectRatio="xMidYMid meet">
<metadata>
Created by potrace 1.14, written by Peter Selinger 2001-2017
</metadata>
<g transform="translate(0.000000,334.000000) scale(0.100000,-0.100000)"
fill="#000000" stroke="none">
<path d="M1960 3285 l0 -55 -50 0 -50 0 0 -50 0 -50 -55 0 -55 0 0 -645 0
-645 -80 0 -80 0 0 720 0 720 -65 0 -65 0 0 -55 0 -55 -50 0 -50 0 0 -50 0
-50 -55 0 -55 0 0 -615 0 -615 -520 0 -520 0 0 -55 0 -55 -50 0 -50 0 0 -50 0
-50 -55 0 -55 0 0 -815 0 -815 690 0 690 0 0 50 0 50 55 0 55 0 0 55 0 55 50
0 50 0 0 645 0 645 80 0 80 0 0 -750 0 -750 660 0 660 0 0 50 0 50 55 0 55 0
0 55 0 55 50 0 50 0 0 65 0 65 -595 0 -595 0 0 580 0 580 520 0 520 0 0 50 0
50 55 0 55 0 0 55 0 55 50 0 50 0 0 815 0 815 -690 0 -690 0 0 -55z m1040
-865 l0 -580 -455 0 -455 0 0 580 0 580 455 0 455 0 0 -580z m-1750 -1500 l0
-580 -455 0 -455 0 0 580 0 580 455 0 455 0 0 -580z"/>
</g>
</svg>
